<svg width="512" height="512" viewBox="0 0 512 512" fill="none" xmlns="http://www.w3.org/2000/svg">
<g clip-path="url(#clip0_49_5)">
<path d="M512 64H90.496L89.6 56.512C87.7664 40.9476 80.2855 26.597 68.5758 16.1809C56.866 5.76476 41.7414 0.00729159 26.0693 0L0 0V42.6667H26.0693C31.2946 42.6674 36.3379 44.5857 40.2426 48.0579C44.1474 51.5301 46.642 56.3146 47.2533 61.504L81.0667 348.821C82.9003 364.386 90.3811 378.736 102.091 389.152C113.801 399.569 128.925 405.326 144.597 405.333H426.667V362.667H144.597C139.369 362.665 134.323 360.744 130.418 357.267C126.512 353.791 124.02 349.001 123.413 343.808L120.619 320H465.835L512 64ZM430.165 277.333H115.605L95.5307 106.667H460.949L430.165 277.333Z" fill="white"/>
<path d="M149.334 512C172.898 512 192 492.898 192 469.333C192 445.769 172.898 426.667 149.334 426.667C125.77 426.667 106.667 445.769 106.667 469.333C106.667 492.898 125.77 512 149.334 512Z" fill="white"/>
<path d="M362.667 512C386.231 512 405.333 492.898 405.333 469.333C405.333 445.769 386.231 426.667 362.667 426.667C339.103 426.667 320 445.769 320 469.333C320 492.898 339.103 512 362.667 512Z" fill="white"/>
</g>
<defs>
<clipPath id="clip0_49_5">
<rect width="512" height="512" fill="white"/>
</clipPath>
</defs>
</svg>
